<?xml version="1.0" encoding="utf-8"?>
<!-- Generator: Adobe Illustrator 23.0.6, SVG Export Plug-In . SVG Version: 6.00 Build 0)  -->
<svg version="1.1" id="Layer_1" xmlns="http://www.w3.org/2000/svg" xmlns:xlink="http://www.w3.org/1999/xlink" x="0px" y="0px"
	 viewBox="0 0 1200 1200" enable-background="new 0 0 1200 1200" xml:space="preserve">
<path fill="#211F1F" d="M607.8,115.544V332.35l124.477-92.329L607.8,115.544z M915.064,104.439H618.403L744.74,230.776
	L915.064,104.439z M581.597,104.439H284.935L455.26,230.776L581.597,104.439z M623.103,340.109h209.262l-89.117-89.117
	L623.103,340.109z M854.073,340.109h293.568L937.267,107.081L755.711,241.748L854.073,340.109z M576.897,340.109l-120.145-89.117
	l-89.117,89.117H576.897z M607.8,355.458v733.053l230.487-733.053H607.8z M854.376,355.458l-232.702,740.1L1150,355.458H854.376z
	 M444.288,241.748L262.732,107.081L52.36,340.109h293.568L444.288,241.748z M592.2,332.35V115.544L467.723,240.021L592.2,332.35z
	 M50,355.458l528.326,740.103L345.623,355.458H50z M592.2,1088.513V355.458H361.713L592.2,1088.513z"/>
</svg>
